<svg xmlns="http://www.w3.org/2000/svg" width="171.425" height="55.787" viewBox="0 0 171.425 55.787">
  <g id="Raggruppa_5854" data-name="Raggruppa 5854" transform="translate(-134.124 -18.213)">
    <g id="Raggruppa_5846" data-name="Raggruppa 5846" transform="translate(11 11.956)">
      <g id="Raggruppa_5845" data-name="Raggruppa 5845" transform="translate(200 6.257)">
        <g id="Raggruppa_5833" data-name="Raggruppa 5833">
          <path id="Tracciato_12" data-name="Tracciato 12" d="M43.38,158.585a15.714,15.714,0,1,0,15.6-27.176l-2.1-1,1.168-2c3.177-5.451,6.375-10.969,8.314-14.322H42.175V109.8h31.6l-1.856,3.213c-.014.024-4.405,7.63-9.073,15.648a20.116,20.116,0,0,1,6.288,6.283A19.987,19.987,0,0,1,40.97,162.115Z" transform="translate(-40.97 -109.799)" fill-rule="evenodd"/>
          <path id="Tracciato_13" data-name="Tracciato 13" d="M150.23,165.586l29.735-51.5H156.471V109.8h30.893l-32.209,55.787Z" transform="translate(-120.229 -109.799)" fill-rule="evenodd"/>
          <path id="Tracciato_14" data-name="Tracciato 14" d="M273.819,131.48a19.977,19.977,0,0,0-21.445-4.468L259.83,114.1h17.7v-4.267H257.369l-14.042,24.322,3.581,2.309a15.712,15.712,0,1,1,12.775,24.863c-.25,0-.5-.007-.744-.019l-.158-.009c-.225-.013-.449-.029-.671-.051l-.049,0a15.71,15.71,0,0,1-14.086-15.625h-4.284A20,20,0,0,0,255.207,165.1l.046.011q.338.077.679.142l.123.022q.5.092,1.011.158c.142.019.283.038.426.054s.263.026.4.037q.282.026.566.043c.107.007.213.013.32.018.3.014.6.023.909.023a19.992,19.992,0,0,0,14.136-34.128Z" transform="translate(-185.126 -109.821)" fill-rule="evenodd"/>
        </g>
      </g>
    </g>
    <path id="Tracciato_139955" data-name="Tracciato 139955" d="M52.369,56.832a2.79,2.79,0,0,0-2.191-.865,2.648,2.648,0,0,0-1.7.444,1.475,1.475,0,0,0-.534,1.2,1.374,1.374,0,0,0,.135.641,1.108,1.108,0,0,0,.421.432,3.057,3.057,0,0,0,.73.3q.444.129,1.051.253a12.014,12.014,0,0,1,1.169.3,3.378,3.378,0,0,1,.882.41,1.734,1.734,0,0,1,.562.607,1.829,1.829,0,0,1,.2.888,1.944,1.944,0,0,1-.208.921,1.847,1.847,0,0,1-.584.657,2.742,2.742,0,0,1-.9.4,4.643,4.643,0,0,1-1.163.135,4.488,4.488,0,0,1-3.157-1.191l.3-.461a3.665,3.665,0,0,0,1.236.837,4.174,4.174,0,0,0,1.64.309,2.99,2.99,0,0,0,1.635-.382,1.285,1.285,0,0,0,.59-1.157,1.367,1.367,0,0,0-.152-.669,1.347,1.347,0,0,0-.466-.477,3.223,3.223,0,0,0-.781-.348q-.466-.146-1.1-.281t-1.129-.287a3.076,3.076,0,0,1-.826-.382,1.519,1.519,0,0,1-.506-.556,1.778,1.778,0,0,1-.169-.82,2.106,2.106,0,0,1,.208-.955,2.018,2.018,0,0,1,.579-.7,2.58,2.58,0,0,1,.888-.433,4.208,4.208,0,0,1,1.146-.146,3.871,3.871,0,0,1,1.382.23,3.258,3.258,0,0,1,1.1.7l-.292.449Zm17.921-.809H67.369v7.461H66.8V56.023H63.874v-.517H70.29v.517Zm14.719,6.989a2.684,2.684,0,0,0,1.342-.3,2.377,2.377,0,0,0,.848-.8,3.309,3.309,0,0,0,.444-1.124,6.287,6.287,0,0,0,.129-1.27V55.506h.573v4.011a6.563,6.563,0,0,1-.174,1.528,3.682,3.682,0,0,1-.568,1.286,2.8,2.8,0,0,1-1.028.882,3.377,3.377,0,0,1-1.556.326,3.325,3.325,0,0,1-1.584-.343,2.848,2.848,0,0,1-1.028-.91A3.708,3.708,0,0,1,81.857,61a6.7,6.7,0,0,1-.163-1.483V55.506h.573v4.011A6.4,6.4,0,0,0,82.4,60.81a3.253,3.253,0,0,0,.444,1.118,2.361,2.361,0,0,0,.843.786,2.67,2.67,0,0,0,1.326.3Zm15.55.472V55.506h2.652a4.073,4.073,0,0,1,1.657.315,3.336,3.336,0,0,1,1.186.854,3.579,3.579,0,0,1,.708,1.264A4.96,4.96,0,0,1,107,59.484a4.855,4.855,0,0,1-.264,1.646,3.547,3.547,0,0,1-.759,1.258,3.378,3.378,0,0,1-1.2.809,4.113,4.113,0,0,1-1.567.287Zm5.866-4a4.33,4.33,0,0,0-.214-1.388,3.119,3.119,0,0,0-.624-1.1,2.842,2.842,0,0,0-1.006-.719,3.416,3.416,0,0,0-1.371-.258h-2.079v6.944h2.079A3.421,3.421,0,0,0,104.6,62.7a2.774,2.774,0,0,0,1.006-.736,3.229,3.229,0,0,0,.612-1.107,4.4,4.4,0,0,0,.208-1.376Zm12.437,4V55.517h.573v7.967ZM135,63.54a3.3,3.3,0,0,1-1.517-.348,3.921,3.921,0,0,1-1.18-.91,4.063,4.063,0,0,1-.764-1.292,4.282,4.282,0,0,1-.27-1.494,4.144,4.144,0,0,1,.287-1.528,4.264,4.264,0,0,1,.787-1.292,3.763,3.763,0,0,1,1.185-.893,3.361,3.361,0,0,1,1.483-.331,3.257,3.257,0,0,1,1.517.354,3.841,3.841,0,0,1,1.174.927,4.282,4.282,0,0,1,.758,1.3,4.225,4.225,0,0,1-.8,4.292,3.831,3.831,0,0,1-1.18.888A3.324,3.324,0,0,1,135,63.54Zm-3.157-4.045a3.838,3.838,0,0,0,.23,1.32,3.564,3.564,0,0,0,.652,1.124,3.227,3.227,0,0,0,1,.781,2.79,2.79,0,0,0,1.275.292,2.75,2.75,0,0,0,1.3-.3,3.229,3.229,0,0,0,.994-.8,3.7,3.7,0,0,0,.641-1.129,3.788,3.788,0,0,0-.011-2.6,3.651,3.651,0,0,0-.657-1.124,3.234,3.234,0,0,0-1-.781,2.916,2.916,0,0,0-2.568.011,3.151,3.151,0,0,0-.994.8,3.852,3.852,0,0,0-.86,2.41Z" transform="translate(87.373 -5.338)" stroke="#000" stroke-width="0.5" fill-rule="evenodd"/>
  </g>
</svg>
