<?xml version="1.0" encoding="utf-8"?>
<!-- Generator: Adobe Illustrator 25.2.3, SVG Export Plug-In . SVG Version: 6.00 Build 0)  -->
<svg version="1.1" id="Livello_1" xmlns="http://www.w3.org/2000/svg" xmlns:xlink="http://www.w3.org/1999/xlink" x="0px" y="0px"
	 viewBox="0 0 18.1 130.2" style="enable-background:new 0 0 18.1 130.2;" xml:space="preserve">
<style type="text/css">
	.st0{fill:none;}
</style>
<g id="Livello_2_1_">
	<g id="Layer_1">
		<polygon class="st0" points="13.5,121.7 4.6,121.7 4.4,121.7 0,121.7 0,130.2 0,130.2 4.5,122.4 9.1,130.2 13.6,122.4 18.1,130.2 
			18.1,121.7 13.7,121.7 		"/>
		<polygon points="0,8.9 0,9.3 0.2,9.3 		"/>
		<polygon points="9.1,8.9 8.8,9.3 9.3,9.3 		"/>
		<polygon points="18.1,9.3 18.1,8.9 17.9,9.3 		"/>
		<polygon points="4.5,17.8 4.1,18.6 5,18.6 		"/>
		<polygon points="13.6,17.8 13.1,18.6 14,18.6 		"/>
		<polygon points="0,26.7 0,27.8 0.7,27.8 		"/>
		<polygon points="9.1,26.7 8.4,27.8 9.7,27.8 		"/>
		<polygon points="18.1,27.8 18.1,26.7 17.4,27.8 		"/>
		<polygon points="4.5,35.4 3.5,37.1 5.5,37.1 		"/>
		<polygon points="13.6,35.4 12.6,37.1 14.6,37.1 		"/>
		<polygon points="0,44.2 0,46.4 1.3,46.4 		"/>
		<polygon points="9.1,44.2 7.8,46.4 10.3,46.4 		"/>
		<polygon points="18.1,46.4 18.1,44.2 16.8,46.4 		"/>
		<polygon points="4.5,53 2.9,55.8 6.2,55.8 		"/>
		<polygon points="13.6,53 11.9,55.8 15.2,55.8 		"/>
		<polygon points="0,61.7 0,65.2 2,65.2 		"/>
		<polygon points="9.1,61.7 7.1,65.2 11.1,65.2 		"/>
		<polygon points="18.1,65.2 18.1,61.7 16.1,65.2 		"/>
		<polygon points="4.5,70.4 2.1,74.6 6.9,74.6 		"/>
		<polygon points="13.6,70.4 11.2,74.6 16,74.6 		"/>
		<polygon points="0,79.1 0,84 2.8,84 		"/>
		<polygon points="9.1,79.1 6.3,84 11.9,84 		"/>
		<polygon points="18.1,84 18.1,79.1 15.3,84 		"/>
		<polygon points="4.5,87.8 1.3,93.4 7.8,93.4 		"/>
		<polygon points="10.3,93.4 16.8,93.4 13.6,87.8 		"/>
		<polygon points="0,96.4 0,102.8 3.7,102.8 		"/>
		<polygon points="9.1,96.4 5.4,102.8 12.7,102.8 		"/>
		<polygon points="18.1,102.8 18.1,96.4 14.4,102.8 		"/>
		<polygon points="0.4,112.3 8.6,112.3 4.5,105.1 		"/>
		<polygon points="9.4,112.3 17.7,112.3 13.6,105.1 		"/>
		<polygon points="9.1,113.7 4.5,121.6 0,113.7 0,121.7 4.4,121.7 4.6,121.7 13.5,121.7 13.7,121.7 18.1,121.7 18.1,113.7 
			13.6,121.6 		"/>
		<polygon points="9.1,130.2 4.5,122.4 0,130.2 		"/>
		<polygon points="13.6,122.4 9.1,130.2 18.1,130.2 		"/>
		<polygon points="0,130.2 0,130.2 0,130.2 		"/>
	</g>
</g>
</svg>
